<?xml version="1.0" encoding="UTF-8" standalone="no"?>
<!-- Generator: Adobe Illustrator 27.6.1, SVG Export Plug-In . SVG Version: 6.00 Build 0)  -->

<svg
   version="1.1"
   id="Layer_1"
   x="0px"
   y="0px"
   viewBox="0 0 412.83594 601.97735"
   xml:space="preserve"
   sodipodi:docname="uc-ospo-berkeley-logo.svg"
   inkscape:version="1.3 (0e150ed6c4, 2023-07-21)"
   width="412.83594"
   height="601.97736"
   xmlns:inkscape="http://www.inkscape.org/namespaces/inkscape"
   xmlns:sodipodi="http://sodipodi.sourceforge.net/DTD/sodipodi-0.dtd"
   xmlns="http://www.w3.org/2000/svg"
   xmlns:svg="http://www.w3.org/2000/svg"><defs
   id="defs115"><rect
     x="21.195894"
     y="258.27429"
     width="65.966904"
     height="129.54848"
     id="rect1" /></defs><sodipodi:namedview
   id="namedview115"
   pagecolor="#ffffff"
   bordercolor="#000000"
   borderopacity="0.25"
   inkscape:showpageshadow="2"
   inkscape:pageopacity="0.0"
   inkscape:pagecheckerboard="0"
   inkscape:deskcolor="#d1d1d1"
   inkscape:zoom="0.90321097"
   inkscape:cx="462.23974"
   inkscape:cy="231.39666"
   inkscape:window-width="1920"
   inkscape:window-height="1200"
   inkscape:window-x="0"
   inkscape:window-y="0"
   inkscape:window-maximized="0"
   inkscape:current-layer="Layer_1" />&#10;<style
   type="text/css"
   id="style1">&#10;	.st0{fill:#F7945E;}&#10;	.st1{fill:#619BD3;}&#10;	.st2{fill:#F15C45;}&#10;	.st3{fill:#FFCA26;}&#10;	.st4{fill:#214475;}&#10;	.st5{enable-background:new    ;}&#10;	.st6{fill:#224475;}&#10;</style>&#10;&#10;<text
   xml:space="preserve"
   id="text1"
   style="font-weight:bold;font-size:37.3333px;font-family:Lato;-inkscape-font-specification:'Lato Bold';white-space:pre;shape-inside:url(#rect1);display:inline;fill:#1f335e;fill-opacity:1"
   transform="translate(-0.34355358,-72)" /><text
   xml:space="preserve"
   style="font-weight:bold;font-size:66.6667px;font-family:Lato;-inkscape-font-specification:'Lato Bold';text-align:center;text-anchor:middle;fill:#1f335e;fill-opacity:1"
   x="205.10547"
   y="346.65134"
   id="text2"><tspan
     sodipodi:role="line"
     id="tspan2"
     x="205.10547"
     y="346.65134"
     style="font-style:normal;font-variant:normal;font-weight:bold;font-stretch:normal;font-size:66.6667px;font-family:'Open Sans';-inkscape-font-specification:'Open Sans Bold';text-align:center;text-anchor:middle" /><tspan
     sodipodi:role="line"
     x="205.10547"
     y="432.91476"
     style="font-style:normal;font-variant:normal;font-weight:bold;font-stretch:normal;font-size:56px;font-family:'Open Sans';-inkscape-font-specification:'Open Sans Bold';text-align:center;text-anchor:middle"
     id="tspan3">Program Office</tspan></text><text
   xml:space="preserve"
   style="font-weight:bold;font-size:56px;font-family:'Open Sans';-inkscape-font-specification:'Open Sans Bold';text-align:center;text-anchor:middle;fill:#1f335e"
   x="206.16342"
   y="369.63943"
   id="text3"><tspan
     sodipodi:role="line"
     id="tspan1"
     x="206.16342"
     y="369.63943"
     style="font-size:56px">Open Source</tspan></text><g
   id="group-R5"
   transform="matrix(0.30640061,0,0,0.30640061,2.4009004,468.84791)"><path
     id="path2-6"
     d="m 7254.08,775.59 h 60.19 v 346.79 h -60.19 V 775.59"
     style="fill:#1f335e;fill-opacity:1;fill-rule:nonzero;stroke:none"
     transform="matrix(0.13333333,0,0,-0.13333333,0,533.33333)" /><path
     id="path3-7"
     d="m 7117.91,894.531 h -1.5 l -141.26,228.359 -58.28,-6.01 V 775.59 h 60.27 v 232.89 h 1.06 l 146.32,-232.89 h 53.68 v 346.79 h -60.29 V 894.531"
     style="fill:#1f335e;fill-opacity:1;fill-rule:nonzero;stroke:none"
     transform="matrix(0.13333333,0,0,-0.13333333,0,533.33333)" /><path
     id="path4-5"
     d="m 6026.45,775.59 h 60.26 V 925 h 127.6 v 51.059 h -127.6 v 95.781 h 142.35 v 51.05 h -202.61 v -347.3"
     style="fill:#1f335e;fill-opacity:1;fill-rule:nonzero;stroke:none"
     transform="matrix(0.13333333,0,0,-0.13333333,0,533.33333)" /><path
     id="path5"
     d="m 5887.75,775.59 h 60.27 v 346.79 h -60.27 V 775.59"
     style="fill:#1f335e;fill-opacity:1;fill-rule:nonzero;stroke:none"
     transform="matrix(0.13333333,0,0,-0.13333333,0,533.33333)" /><path
     id="path6"
     d="m 5679.72,1122.38 h -60.27 V 775.59 h 205.14 l 4.56,51.172 h -149.43 v 295.618"
     style="fill:#1f335e;fill-opacity:1;fill-rule:nonzero;stroke:none"
     transform="matrix(0.13333333,0,0,-0.13333333,0,533.33333)" /><path
     id="path7"
     d="m 5101.67,821.211 c -64.25,0 -94.7,46.098 -94.7,128.051 0,81.438 32.44,127.578 93.69,127.578 32.89,0 57.29,-11.68 84.07,-33.95 l 31.32,40.51 c -36.37,29.92 -72.33,44.61 -115.39,44.61 -104.26,0 -155.45,-74.92 -155.45,-179.26 0,-106.289 46.58,-178.75 153.41,-178.75 46.59,0 90.1,19.18 125.59,51.68 l -30.88,39.492 c -28.39,-25.863 -60.78,-39.961 -91.66,-39.961"
     style="fill:#1f335e;fill-opacity:1;fill-rule:nonzero;stroke:none"
     transform="matrix(0.13333333,0,0,-0.13333333,0,533.33333)" /><path
     id="path8"
     d="m 4515.99,775.59 h 60.2 V 925 h 127.61 v 51.059 h -127.61 v 95.781 h 142.32 v 51.05 h -202.52 v -347.3"
     style="fill:#1f335e;fill-opacity:1;fill-rule:nonzero;stroke:none"
     transform="matrix(0.13333333,0,0,-0.13333333,0,533.33333)" /><path
     id="path9-3"
     d="m 3815.87,1023.67 c 0,0 -6.1,-12.65 -23.28,-51.088 h -1.49 c -18.24,38.438 -24.87,51.088 -24.87,51.088 l -46.04,98.71 h -67.87 L 3761.71,923.988 V 775.59 h 60.28 v 148.398 l 109.35,198.392 h -66.4 l -49.07,-98.71"
     style="fill:#1f335e;fill-opacity:1;fill-rule:nonzero;stroke:none"
     transform="matrix(0.13333333,0,0,-0.13333333,0,533.33333)" /><path
     id="path10-5"
     d="m 3368.84,1070.82 h 91.66 V 775.59 h 60.27 v 295.66 h 87.6 l 4.53,51.13 h -244.06 v -51.56"
     style="fill:#1f335e;fill-opacity:1;fill-rule:nonzero;stroke:none"
     transform="matrix(0.13333333,0,0,-0.13333333,0,533.33333)" /><path
     id="path11-6"
     d="m 3239.24,775.59 h 60.28 v 346.79 h -60.28 V 775.59"
     style="fill:#1f335e;fill-opacity:1;fill-rule:nonzero;stroke:none"
     transform="matrix(0.13333333,0,0,-0.13333333,0,533.33333)" /><path
     id="path12-2"
     d="m 3014.02,1032.31 c 0,25.78 17.22,44.53 50.68,44.53 29.82,0 53.11,-10.08 78.95,-23.25 l 21.78,43.52 c -29.38,18.24 -64.26,30.9 -100.73,30.9 -61.3,0 -112.41,-36.99 -112.41,-98.24 0,-116.489 153.43,-95.711 153.43,-160.59 0,-25.7 -19.81,-47.969 -59.77,-47.969 -26.85,0 -60.78,12.66 -89.04,31.84 l -25.39,-44.531 c 28.34,-19.77 66.79,-38.52 114.43,-38.52 66.3,0 121.49,42.582 121.49,101.289 0,118.031 -153.42,82.543 -153.42,161.021"
     style="fill:#1f335e;fill-opacity:1;fill-rule:nonzero;stroke:none"
     transform="matrix(0.13333333,0,0,-0.13333333,0,533.33333)" /><path
     id="path13-9"
     d="m 2407.06,925 h 130.14 v 51.129 h -130.14 v 95.711 h 146.33 v 51.05 h -206.52 v -347.3 h 210.57 l 4.6,51.172 H 2407.06 V 925"
     style="fill:#1f335e;fill-opacity:1;fill-rule:nonzero;stroke:none"
     transform="matrix(0.13333333,0,0,-0.13333333,0,533.33333)" /><path
     id="path14-1"
     d="m 2162.57,928.48 c 0,0 -6.54,-19.769 -23.73,-78.992 h -3.06 c -16.74,59.223 -23.27,79.571 -23.27,79.571 l -66.38,193.321 h -63.75 l 119.49,-346.79 h 66.29 l 120,346.79 h -59.23 l -66.36,-193.9"
     style="fill:#1f335e;fill-opacity:1;fill-rule:nonzero;stroke:none"
     transform="matrix(0.13333333,0,0,-0.13333333,0,533.33333)" /><path
     id="path15-2"
     d="m 1862.88,775.59 h 60.28 v 346.79 h -60.28 V 775.59"
     style="fill:#1f335e;fill-opacity:1;fill-rule:nonzero;stroke:none"
     transform="matrix(0.13333333,0,0,-0.13333333,0,533.33333)" /><path
     id="path16-7"
     d="m 1716.65,894.531 h -1.44 l -141.39,228.359 -58.16,-6.01 V 775.59 h 60.25 v 232.89 h 0.96 l 146.36,-232.89 h 53.62 v 346.79 h -60.2 V 894.531"
     style="fill:#1f335e;fill-opacity:1;fill-rule:nonzero;stroke:none"
     transform="matrix(0.13333333,0,0,-0.13333333,0,533.33333)" /><path
     id="path17-0"
     d="m 1370.83,892.582 c 0,-43.094 -18.12,-71.371 -67.24,-71.371 -49.61,0 -67.85,28.277 -67.85,71.879 v 229.29 h -60.2 V 896.059 c 0,-77.899 42.93,-126.059 128.05,-126.059 84.5,0 127.6,48.16 127.6,126.559 v 225.821 h -60.36 V 892.582"
     style="fill:#1f335e;fill-opacity:1;fill-rule:nonzero;stroke:none"
     transform="matrix(0.13333333,0,0,-0.13333333,0,533.33333)" /><path
     id="path18-9"
     d="m 7463.08,902.191 26.86,76.481 c 0,0 4.1,11.058 27.3,82.968 h 1.03 c 23.83,-71.91 27.82,-82.968 27.82,-82.968 l 26.89,-76.481 z m 92.68,220.699 -70.38,-5.58 -122.03,-341.72 h 56.21 l 28.85,83.551 h 139.71 l 28.89,-83.551 h 61.75 l -123,347.3"
     style="fill:#1f335e;fill-opacity:1;fill-rule:nonzero;stroke:none"
     transform="matrix(0.13333333,0,0,-0.13333333,0,533.33333)" /><path
     id="path19-3"
     d="m 6732.65,964.961 h -50.58 v 105.859 h 49.55 c 41.07,0 54.25,-19.33 54.25,-51.68 0,-32.89 -16.77,-54.179 -53.22,-54.179 z m 70.92,-64.332 c -4.08,8.082 -10.13,17.223 -21.29,23.859 v 0.942 c 45.55,17.269 65.35,52.66 65.35,94.22 0,60.23 -38.05,102.73 -114.43,102.73 H 6621.81 V 775.59 h 60.26 v 138.789 h 28.84 c 21.74,0 34.42,-20.348 44.51,-40.981 l 48.15,-97.808 h 66.29 l -66.29,125.039"
     style="fill:#1f335e;fill-opacity:1;fill-rule:nonzero;stroke:none"
     transform="matrix(0.13333333,0,0,-0.13333333,0,533.33333)" /><path
     id="path20-6"
     d="m 6418.84,821.211 c -59.77,0 -89.16,52.621 -89.16,128.559 0,75.47 29.39,127.07 89.16,127.07 59.77,0 88.61,-52.15 88.61,-127.578 0,-75.43 -29.39,-128.051 -88.61,-128.051 z m 0,306.799 c -104.3,0 -150.89,-74.42 -150.89,-178.748 C 6267.95,850 6314,770 6418.84,770 c 104.77,0 150.88,80 150.88,179.262 0,104.328 -46.64,178.748 -150.88,178.748"
     style="fill:#1f335e;fill-opacity:1;fill-rule:nonzero;stroke:none"
     transform="matrix(0.13333333,0,0,-0.13333333,0,533.33333)" /><path
     id="path21-0"
     d="m 5354.76,902.191 26.84,76.481 c 0,0 4,11.058 27.28,82.968 h 1.06 c 23.8,-71.91 27.83,-82.968 27.83,-82.968 l 26.85,-76.481 z m 92.68,220.699 -70.38,-5.58 -122.12,-341.72 h 56.32 l 28.81,83.551 h 139.81 l 28.81,-83.551 h 61.74 l -122.99,347.3"
     style="fill:#1f335e;fill-opacity:1;fill-rule:nonzero;stroke:none"
     transform="matrix(0.13333333,0,0,-0.13333333,0,533.33333)" /><path
     id="path22-6"
     d="m 4287.65,821.211 c -59.74,0 -89.04,52.621 -89.04,128.559 0,75.47 29.3,127.07 89.04,127.07 59.84,0 88.61,-52.15 88.61,-127.578 0,-75.43 -29.32,-128.051 -88.61,-128.051 z m 0,306.799 c -104.22,0 -150.89,-74.42 -150.89,-178.748 C 4136.76,850 4182.9,770 4287.65,770 c 104.84,0 150.96,80 150.96,179.262 0,104.328 -46.67,178.748 -150.96,178.748"
     style="fill:#1f335e;fill-opacity:1;fill-rule:nonzero;stroke:none"
     transform="matrix(0.13333333,0,0,-0.13333333,0,533.33333)" /><path
     id="path23-2"
     d="m 2752.81,964.961 h -50.61 v 105.859 h 49.63 c 41.02,0 54.16,-19.33 54.16,-51.68 0,-32.89 -16.75,-54.179 -53.18,-54.179 z m 70.91,-64.332 c -4.02,8.082 -10.13,17.223 -21.21,23.859 v 0.942 c 45.51,17.269 65.24,52.66 65.24,94.22 0,60.23 -37.93,102.73 -114.44,102.73 H 2641.93 V 775.59 h 60.27 v 138.789 h 28.89 c 21.72,0 34.43,-20.348 44.57,-40.981 l 48.06,-97.808 h 66.33 l -66.33,125.039"
     style="fill:#1f335e;fill-opacity:1;fill-rule:nonzero;stroke:none"
     transform="matrix(0.13333333,0,0,-0.13333333,0,533.33333)" /><path
     id="path24-6"
     d="m 9035.29,2495.12 c -36.33,0 -106.42,-10.39 -145.31,-10.39 -70.08,0 -116.73,5.22 -186.8,5.22 -46.68,0 -54.43,0 -54.43,-33.78 0,-25.94 10.34,-25.94 90.8,-25.94 88.16,0 88.16,-15.54 88.16,-93.36 0,-36.32 -93.36,-306.17 -155.66,-492.89 -41.51,-121.99 -57.05,-158.28 -75.22,-158.28 -10.41,0 -41.52,44.1 -62.26,98.56 -155.75,399.53 -223.07,490.35 -223.07,565.54 0,59.65 15.49,75.2 77.75,75.2 54.46,0 64.89,2.62 64.89,25.98 0,28.59 -10.43,38.97 -64.89,38.97 -83.04,0 -173.81,-7.76 -246.42,-7.76 -62.28,0 -80.51,5.15 -153.08,5.15 -46.71,0 -54.52,-13 -54.52,-36.36 0,-23.36 2.62,-25.98 54.52,-25.98 46.67,0 64.83,-12.93 129.72,-168.55 142.69,-337.27 350.21,-817.27 350.21,-845.83 0,-77.81 -223.07,-383.9 -316.5,-500.698 C 8064.93,798.32 7943.04,782.77 7943.04,767.23 c 0,-13.011 25.98,-25.941 70.02,-25.941 57.07,0 75.24,20.781 153.05,31.09 57.14,7.851 88.32,10.391 116.81,67.5 82.97,171.291 199.77,381.411 363.25,778.321 204.9,498.17 319.04,809.42 376.15,809.42 31.13,0 67.43,13 67.43,36.33 0,28.63 -13.01,31.17 -54.46,31.17 M 2058.57,2334.14 c -59.7,29.69 -116.37,44.65 -116.37,50.55 0,8.94 65.63,41.87 122.33,80.58 95.45,65.63 223.71,170 223.71,381.84 0,211.8 -167.03,411.6 -554.82,411.6 -268.42,0 -411.57,-17.97 -474.25,-17.97 -104.37,0 -196.85,3.01 -289.35,3.01 -50.644,0 -59.57,-3.01 -59.57,-23.83 0,-35.82 11.914,-38.83 146.11,-38.83 83.48,0 131.25,-26.87 131.25,-262.5 V 1546.56 c 0,-44.72 -6.03,-50.7 -140.15,-50.7 -65.647,0 -83.558,-6.02 -83.558,-35.74 0,-29.89 20.879,-32.85 50.698,-32.85 95.41,0 161.02,11.91 286.33,11.91 131.25,0 256.55,-29.84 381.82,-29.84 414.59,0 691.95,158.08 691.95,492.18 0,259.53 -175.97,360.98 -316.13,432.62 m -620.35,766.45 c 0,59.64 8.87,86.56 205.68,86.56 271.51,0 396.8,-286.45 396.8,-435.59 0,-235.66 -98.5,-292.3 -184.96,-357.93 0,0 -125.3,17.93 -307.19,17.93 -71.64,0 -110.33,-5.94 -110.33,41.8 z m 259.41,-1637.58 c -95.47,0 -190.82,20.94 -223.72,56.68 -26.82,29.92 -35.69,196.91 -35.69,223.71 v 533.89 c 0,65.68 23.86,77.66 107.34,77.66 325.08,0 545.82,-208.78 545.82,-477.25 0,-259.5 -167.05,-414.69 -393.75,-414.69 m 1301.08,-67.93 c 210.11,0 430.72,163.55 430.72,176.48 0,5.16 -7.81,20.63 -20.74,20.63 -15.55,0 -109.01,-62.19 -280.22,-62.19 -197.22,0 -474.74,95.98 -474.74,453.98 0,59.73 7.73,72.66 49.25,75.28 295.73,18.16 555.18,75.11 622.58,90.82 70.08,15.54 106.41,26.01 106.41,36.33 0,20.78 -41.45,82.96 -85.58,134.84 -93.46,108.98 -259.44,194.65 -394.33,194.65 -236.07,0 -482.57,-217.97 -482.57,-583.79 0,-433.28 316.5,-537.03 529.22,-537.03 m -72.6,1066.25 c 119.35,0 272.36,-191.96 272.36,-256.76 0,-15.55 -2.58,-20.78 -31.17,-25.86 -194.54,-31.17 -334.65,-64.96 -469.55,-64.96 -31.09,0 -31.09,2.62 -31.09,15.54 0,36.33 62.25,332.04 259.45,332.04 m 1214.1,-998.75 c 0,23.32 -2.63,31.17 -70.02,31.17 -191.95,0 -199.77,0 -199.77,127.07 v 534.49 c 0,108.83 57.08,171.17 207.51,171.17 129.74,0 160.91,-106.36 197.24,-106.36 15.55,0 57.06,114.14 57.06,140.08 0,67.42 -119.4,124.53 -166.04,124.53 -121.96,0 -243.93,-134.93 -282.77,-134.93 -10.42,0 -13,18.17 -13,41.49 0,7.77 5.2,64.88 5.2,77.85 0,20.81 -10.43,28.59 -20.74,28.59 -41.53,0 -90.86,-13 -132.38,-13 -51.84,0 -101.12,5.22 -189.36,5.22 -44.1,0 -41.52,-7.76 -41.52,-38.97 0,-28.56 0,-25.98 46.75,-25.98 145.28,0 140.08,-5.16 140.08,-181.48 v -710.98 c 0,-36.17 -7.79,-38.79 -114.14,-38.79 -62.34,0 -64.96,-5.23 -64.96,-31.17 0,-26.02 5.23,-26.02 64.96,-26.02 36.33,0 124.51,12.93 212.76,12.93 82.93,0 256.79,-12.93 293.12,-12.93 67.39,0 70.02,-2.61 70.02,26.02 m 1883.63,-67.5 c 210.14,0 430.67,163.55 430.67,176.48 0,5.16 -7.82,20.63 -20.78,20.63 -15.57,0 -109.02,-62.19 -280.18,-62.19 -197.21,0 -474.79,95.98 -474.79,453.98 0,59.73 7.74,72.66 49.34,75.28 295.74,18.16 555.1,75.11 622.6,90.82 70.02,15.54 106.38,26.01 106.38,36.33 0,20.78 -41.5,82.96 -85.65,134.84 -93.43,108.98 -259.4,194.65 -394.31,194.65 -236.17,0 -482.65,-217.97 -482.65,-583.79 0,-433.28 316.6,-537.03 529.37,-537.03 m -72.69,1066.25 c 119.35,0 272.48,-191.96 272.48,-256.76 0,-15.55 -2.62,-20.78 -31.17,-25.86 -194.65,-31.17 -334.67,-64.96 -469.55,-64.96 -31.18,0 -31.18,2.62 -31.18,15.54 0,36.33 62.27,332.04 259.42,332.04 M 7520.21,1395.08 c 210.14,0 430.64,163.55 430.64,176.48 0,5.16 -7.81,20.63 -20.82,20.63 -15.54,0 -108.82,-62.19 -280.13,-62.19 -197.15,0 -474.75,95.98 -474.75,453.98 0,59.73 7.81,72.66 49.26,75.28 295.8,18.16 555.19,75.11 622.66,90.82 70,15.54 106.31,26.01 106.31,36.33 0,20.78 -41.43,82.96 -85.53,134.84 -93.41,108.98 -259.48,194.65 -394.36,194.65 -236.07,0 -482.56,-217.97 -482.56,-583.79 0,-433.28 316.51,-537.03 529.28,-537.03 m -72.7,1066.25 c 119.34,0 272.47,-191.96 272.47,-256.76 0,-15.55 -2.58,-20.78 -31.18,-25.86 -194.61,-31.17 -334.64,-64.96 -469.55,-64.96 -31.18,0 -31.18,2.62 -31.18,15.54 0,36.33 62.28,332.04 259.44,332.04 M 6517.2,1496.37 c -62.34,0 -64.88,-15.63 -64.88,-33.79 0,-20.78 5.22,-26.02 64.88,-26.02 36.33,0 173.79,5.24 262.02,5.24 46.72,0 103.8,-5.24 142.7,-5.24 93.43,0 111.55,0 111.55,26.02 0,20.7 5.24,36.25 -124.53,36.25 -46.72,0 -64.82,28.63 -64.82,243.87 0,75.35 12.96,280.23 12.96,1268.67 0,77.81 13.01,171.17 13.01,202.42 0,28.55 -13.01,41.48 -25.97,41.48 -15.55,0 -114.19,-44.1 -316.49,-57.11 -44.1,-2.53 -64.88,0 -64.88,-31.09 0,-28.55 25.98,-33.71 72.62,-33.71 116.71,0 132.26,0 132.26,-163.48 V 1540.39 c 0,-46.64 -44.03,-44.02 -150.43,-44.02 m -1022.73,-13.09 c -88.15,0 -171.14,127.07 -259.44,233.52 -181.54,217.93 -228.26,267.18 -228.26,290.49 0,18.26 160.86,132.4 290.53,259.47 80.51,77.81 168.67,189.41 168.67,212.81 0,7.77 -10.43,10.38 -31.09,10.38 -31.17,0 -181.63,-7.76 -215.39,-7.76 -31.12,0 -80.45,7.76 -106.43,7.76 -33.59,0 -46.64,-5.22 -46.64,-25.93 0,-23.43 13.05,-28.63 51.95,-28.63 114.04,0 121.86,-5.16 121.86,-46.72 0,-54.33 -23.36,-98.44 -124.55,-194.49 -82.93,-77.81 -352.83,-316.48 -417.68,-316.48 -7.73,0 -10.35,7.77 -10.35,18.16 0,422.77 15.55,713.43 15.55,1107.73 0,83.05 5.19,192.04 5.19,225.75 0,15.61 -5.19,23.32 -18.12,23.32 -23.36,0 -176.49,-57.03 -363.26,-57.03 -28.48,0 -33.68,-10.47 -33.68,-36.41 0,-18.17 10.32,-25.86 116.72,-25.86 70.02,0 90.77,-23.41 90.77,-207.58 0,-547.42 -7.82,-1315.43 -7.82,-1390.62 0,-38.79 -23.28,-38.79 -111.54,-38.79 -62.2,0 -75.21,-13.09 -75.21,-33.79 0,-23.4 15.64,-26.02 75.21,-26.02 36.35,0 132.32,5.24 220.57,5.24 83,0 202.34,-5.24 241.27,-5.24 57.07,0 70.03,0 70.03,26.02 0,20.7 -10.35,33.79 -70.03,33.79 -160.84,0 -155.65,0 -155.65,121.83 v 163.48 c 0,23.36 36.29,41.52 77.81,67.46 44.14,28.56 80.45,54.41 90.79,54.41 15.56,0 124.62,-163.39 233.45,-287.96 109.03,-124.46 132.38,-189.34 179.1,-189.34 36.3,0 114.24,2.54 145.34,2.54 23.28,0 57.03,-2.54 88.16,-2.54 57.05,0 75.21,5.16 75.21,23.24 0,20.78 -20.74,33.79 -83.04,33.79"
     style="fill:#1f335e;fill-opacity:1;fill-rule:nonzero;stroke:none"
     transform="matrix(0.13333333,0,0,-0.13333333,0,533.33333)" /></g><g
   id="g2"
   transform="matrix(2.2645418,0,0,2.2645418,34.248706,0.09361096)"><path
     class="st0"
     d="m 11.323142,61.043999 c -8.4600001,4.57 -17.1000001,21.38 -6.2200001,32.57 C 15.983142,104.804 40.033142,107.114 52.053142,101.074 c 13.65,-6.850001 24.93,-36.380001 25.06,-47.260001 0.13,-10.88 0.51,-21.04 4.86,-21.35 4.35,-0.31 12.14,1.32 17.43,-4.28 5.289998,-5.6 2.759998,-18.32 -7.86,-25.37 -9.45,-6.28 -20.11,-3.03999997 -20.52,19.9 -0.27,15.08 -4.42,27.05 -11.07,36.38 -6.65,9.33 -14.12,8.4 -19.71,7.46 -5.6,-0.92 -19.28,-10.72 -28.92,-5.51 z"
     id="path1-6"
     style="fill:#c4820e;fill-opacity:1" /><path
     class="st1"
     d="m 63.723142,70.913999 c 3.65,-10.42 11.01,-21.3 24.69,-23.17 13.679998,-1.87 25.729998,-3.71 39.109998,0.33 13.37,4.04 25.13,13.51 24.51,33.72 -0.62,20.210001 -14.05,50.740001 -44.14,50.690001 -22.459998,-0.04 -39.379998,-15.84 -43.109998,-31.39 -3.73,-15.550001 -3.24,-23.960001 -1.06,-30.180001 z"
     id="path2-7"
     style="fill:#3b7ea1;fill-opacity:1" /><path
     class="st2"
     d="m 62.473142,119.424 c 2.81,10 15.55,7.15 19.9,-7.77 4.35,-14.930001 -1.55,-20.210001 5.91,-26.430001 7.46,-6.22 14.609998,-1.87 22.079998,-13.68 7.46,-11.82 6.22,-31.41 -7.77,-32.65 -13.989998,-1.24 -18.349998,0.93 -19.899998,3.11 -1.55,2.18 -3.99,9.79 -5.57,19.04 -1.58,9.25 -4.07,26.67 -6.25,31.95 -2.18,5.29 -11.2,16.480001 -8.4,26.430001 z"
     id="path3-5"
     style="fill:#ed4e33;fill-opacity:1" /><path
     class="st3"
     d="m 61.333142,48.583999 c -5.07,11.3 -15.82,14.38 -23.27,11.03 -7.45,-3.35 -8.67,-14.93 -4.3,-26.52 5.06,-13.43 16.06,-15.54 23.51,-12.2 7.45,3.35 9.13,16.39 4.06,27.69 z"
     id="path4-3"
     style="fill:#fdb515;fill-opacity:1" /></g></svg>
