<?xml version="1.0" encoding="UTF-8" standalone="no"?>
<!-- Generator: Adobe Illustrator 27.6.1, SVG Export Plug-In . SVG Version: 6.00 Build 0)  -->

<svg
   version="1.1"
   id="Layer_1"
   x="0px"
   y="0px"
   viewBox="0 0 408.01221 597.226"
   xml:space="preserve"
   sodipodi:docname="uc-ospo-berkeley-logo.svg"
   inkscape:version="1.3 (0e150ed6c4, 2023-07-21)"
   width="408.01221"
   height="597.22601"
   xmlns:inkscape="http://www.inkscape.org/namespaces/inkscape"
   xmlns:sodipodi="http://sodipodi.sourceforge.net/DTD/sodipodi-0.dtd"
   xmlns="http://www.w3.org/2000/svg"
   xmlns:svg="http://www.w3.org/2000/svg"><defs
   id="defs115">&#10;	&#10;	&#10;	&#10;	&#10;&#10;		&#10;		&#10;		&#10;		&#10;		&#10;		&#10;		&#10;		&#10;	</defs><sodipodi:namedview
   id="namedview115"
   pagecolor="#ffffff"
   bordercolor="#000000"
   borderopacity="0.25"
   inkscape:showpageshadow="2"
   inkscape:pageopacity="0.0"
   inkscape:pagecheckerboard="0"
   inkscape:deskcolor="#d1d1d1"
   inkscape:zoom="1.2773332"
   inkscape:cx="345.25056"
   inkscape:cy="300.62634"
   inkscape:window-width="1920"
   inkscape:window-height="1200"
   inkscape:window-x="0"
   inkscape:window-y="0"
   inkscape:window-maximized="0"
   inkscape:current-layer="Layer_1" />&#10;<style
   type="text/css"
   id="style1">&#10;	.st0{fill:#F7945E;}&#10;	.st1{fill:#619BD3;}&#10;	.st2{fill:#F15C45;}&#10;	.st3{fill:#FFCA26;}&#10;	.st4{fill:#214475;}&#10;	.st5{enable-background:new    ;}&#10;	.st6{fill:#224475;}&#10;</style>&#10;<g
   id="g1"
   transform="matrix(1.8378368,0,0,1.8378368,-99.410846,5.3566765e-8)"><path
     class="st0"
     d="m 100.38945,61.043999 c -8.46,4.57 -17.1,21.38 -6.22,32.57 10.88,11.190001 34.93,13.500001 46.95,7.460001 13.65,-6.850001 24.93,-36.380001 25.06,-47.260001 0.13,-10.88 0.51,-21.04 4.86,-21.35 4.35,-0.31 12.14,1.32 17.43,-4.28 5.29,-5.6 2.76,-18.32 -7.86,-25.37 -9.45,-6.28 -20.11,-3.03999997 -20.52,19.9 -0.27,15.08 -4.42,27.05 -11.07,36.38 -6.65,9.33 -14.12,8.4 -19.71,7.46 -5.6,-0.92 -19.28,-10.72 -28.92,-5.51 z"
     id="path1" /><path
     class="st1"
     d="m 152.78945,70.913999 c 3.65,-10.42 11.01,-21.3 24.69,-23.17 13.68,-1.87 25.73,-3.71 39.11,0.33 13.37,4.04 25.13,13.51 24.51,33.72 -0.62,20.210001 -14.05,50.740001 -44.14,50.690001 -22.46,-0.04 -39.38,-15.84 -43.11,-31.39 -3.73,-15.550001 -3.24,-23.960001 -1.06,-30.180001 z"
     id="path2" /><path
     class="st2"
     d="m 151.53945,119.424 c 2.81,10 15.55,7.15 19.9,-7.77 4.35,-14.930001 -1.55,-20.210001 5.91,-26.430001 7.46,-6.22 14.61,-1.87 22.08,-13.68 7.46,-11.82 6.22,-31.41 -7.77,-32.65 -13.99,-1.24 -18.35,0.93 -19.9,3.11 -1.55,2.18 -3.99,9.79 -5.57,19.04 -1.58,9.25 -4.07,26.67 -6.25,31.95 -2.18,5.29 -11.2,16.480001 -8.4,26.430001 z"
     id="path3" /><path
     class="st3"
     d="m 150.39945,48.583999 c -5.07,11.3 -15.82,14.38 -23.27,11.03 -7.45,-3.35 -8.67,-14.93 -4.3,-26.52 5.06,-13.43 16.06,-15.54 23.51,-12.2 7.45,3.35 9.13,16.39 4.06,27.69 z"
     id="path4" /></g><g
   id="g2"
   transform="translate(28.871652,111.00001)"><path
     class="st4"
     d="m 103.34945,291.714 c -4.33,5.97 -11.25,8.96 -20.77,8.96 -9.52,0 -16.5,-3 -20.95,-8.99 -4.44,-5.99 -6.66,-15.03 -6.66,-27.12 v -56.77 c 0,-22.76 9.29,-34.14 27.86,-34.14 9.59,0 16.49,2.89 20.7,8.67 4.21,5.78 6.31,14.27 6.31,25.46 v 56.77 c 0,12.14 -2.17,21.19 -6.49,27.16 z m -27.68,-11.71 c 1.1,2.87 3.37,4.3 6.81,4.3 3.43,0 5.69,-1.47 6.77,-4.41 1.08,-2.94 1.62,-7.98 1.62,-15.13 v -57.83 c 0,-5.88 -0.55,-10.17 -1.66,-12.87 -1.11,-2.7 -3.27,-4.06 -6.49,-4.06 -3.22,0 -5.48,1.35 -6.77,4.06 -1.29,2.7 -1.94,6.97 -1.94,12.8 v 57.9 c 0,7.3 0.55,12.37 1.66,15.24 z"
     id="path5"
     style="fill:#1f335e;fill-opacity:1" /><path
     class="st4"
     d="m 118.34945,264.344 v -11.07 h 17.91 v 12.48 c 0,6.91 0.59,11.77 1.76,14.56 1.17,2.8 3.39,4.2 6.63,4.2 3.24,0 5.4,-1.15 6.45,-3.46 1.06,-2.3 1.59,-6.07 1.59,-11.28 0,-5.22 -0.94,-9.77 -2.82,-13.65 -1.88,-3.88 -4.87,-7.93 -8.96,-12.17 l -9.17,-9.45 c -4.28,-4.47 -7.61,-9.1 -9.98,-13.89 -2.38,-4.8 -3.56,-10.34 -3.56,-16.64 0,-10.25 1.97,-17.87 5.92,-22.85 3.95,-4.98 10.74,-7.48 20.38,-7.48 9.64,0 16.16,2.9 19.57,8.71 3.41,5.81 5.11,14.28 5.11,25.43 v 7.69 h -17.42 v -8.89 c 0,-6.02 -0.52,-10.33 -1.55,-12.94 -1.04,-2.61 -3.02,-3.91 -5.96,-3.91 -2.94,0 -5.06,0.99 -6.35,2.96 -1.29,1.97 -1.94,4.94 -1.94,8.89 0,3.95 0.66,7.1 1.97,9.45 1.32,2.35 3.69,5.36 7.12,9.03 l 10.23,11.07 c 5.12,5.55 8.99,11.17 11.6,16.86 2.61,5.69 3.91,11.9 3.91,18.62 0,11.61 -1.95,20.19 -5.85,25.74 -3.9,5.55 -10.73,8.32 -20.49,8.32 -9.76,0 -16.55,-3.09 -20.38,-9.27 -3.81,-6.19 -5.72,-15.21 -5.72,-27.06 z"
     id="path6"
     style="fill:#1f335e;fill-opacity:1" /><path
     class="st4"
     d="m 179.50945,299.264 v -124.13 h 28.49 c 9.64,0 16.23,2.93 19.78,8.78 3.55,5.85 5.42,14.59 5.61,26.2 v 2.61 c 0,12.32 -1.75,21.66 -5.25,28.03 -3.5,6.37 -10,9.56 -19.5,9.56 h -10.23 v 48.95 z m 18.9,-64.54 h 6.49 c 4,0 6.59,-1.54 7.79,-4.62 1.2,-3.08 1.8,-8.95 1.8,-17.6 v -2.4 c -0.05,-7.33 -0.69,-12.58 -1.94,-15.73 -1.25,-3.15 -3.75,-4.73 -7.51,-4.73 h -6.63 z"
     id="path7"
     style="fill:#1f335e;fill-opacity:1" /><path
     class="st4"
     d="m 288.80945,291.714 c -4.33,5.97 -11.25,8.96 -20.77,8.96 -9.52,0 -16.5,-3 -20.95,-8.99 -4.44,-5.99 -6.66,-15.03 -6.66,-27.12 v -56.77 c 0,-22.76 9.28,-34.14 27.86,-34.14 9.59,0 16.49,2.89 20.7,8.67 4.21,5.78 6.31,14.27 6.31,25.46 v 56.77 c 0,12.14 -2.17,21.19 -6.49,27.16 z m -27.68,-11.71 c 1.1,2.87 3.37,4.3 6.81,4.3 3.43,0 5.69,-1.47 6.77,-4.41 1.08,-2.94 1.62,-7.98 1.62,-15.13 v -57.83 c 0,-5.88 -0.55,-10.17 -1.66,-12.87 -1.11,-2.7 -3.27,-4.06 -6.49,-4.06 -3.22,0 -5.48,1.35 -6.77,4.06 -1.29,2.7 -1.94,6.97 -1.94,12.8 v 57.9 c 0,7.3 0.55,12.37 1.66,15.24 z"
     id="path8"
     style="fill:#1f335e;fill-opacity:1" /></g>&#10;<g
   id="group-R5"
   transform="matrix(0.30600916,0,0,0.30600916,0,434.02114)"><path
     id="path2-3"
     d="M 10000,0 H 0 V 4000 H 10000 V 0"
     style="fill:#1f335e;fill-opacity:1;fill-rule:nonzero;stroke:none"
     transform="matrix(0.13333333,0,0,-0.13333333,0,533.33333)" /><path
     id="path3-6"
     d="m 9035.29,2495.12 c -36.33,0 -106.42,-10.39 -145.31,-10.39 -70.08,0 -116.73,5.22 -186.8,5.22 -46.68,0 -54.43,0 -54.43,-33.78 0,-25.94 10.34,-25.94 90.79,-25.94 88.17,0 88.17,-15.54 88.17,-93.36 0,-36.32 -93.36,-306.17 -155.67,-492.89 -41.5,-121.99 -57.04,-158.28 -75.21,-158.28 -10.41,0 -41.52,44.1 -62.27,98.56 -155.74,399.53 -223.06,490.35 -223.06,565.54 0,59.65 15.49,75.2 77.75,75.2 54.46,0 64.88,2.62 64.88,25.98 0,28.59 -10.42,38.97 -64.88,38.97 -83.04,0 -173.81,-7.76 -246.42,-7.76 -62.28,0 -80.51,5.15 -153.08,5.15 -46.71,0 -54.52,-13 -54.52,-36.36 0,-23.36 2.62,-25.98 54.52,-25.98 46.67,0 64.83,-12.93 129.72,-168.55 142.69,-337.27 350.21,-817.27 350.21,-845.83 0,-77.81 -223.07,-383.9 -316.5,-500.698 C 8064.93,798.32 7943.04,782.77 7943.04,767.23 c 0,-13.011 25.98,-25.941 70.02,-25.941 57.07,0 75.23,20.781 153.05,31.09 57.14,7.851 88.32,10.391 116.81,67.5 82.97,171.291 199.77,381.411 363.25,778.321 204.9,498.17 319.04,809.42 376.15,809.42 31.13,0 67.43,13 67.43,36.33 0,28.63 -13.01,31.17 -54.46,31.17 M 2058.57,2334.14 c -59.7,29.69 -116.37,44.65 -116.37,50.55 0,8.94 65.63,41.87 122.33,80.58 95.44,65.63 223.71,170 223.71,381.84 0,211.8 -167.03,411.6 -554.82,411.6 -268.42,0 -411.57,-17.97 -474.25,-17.97 -104.37,0 -196.85,3.01 -289.35,3.01 -50.644,0 -59.57,-3.01 -59.57,-23.83 0,-35.82 11.914,-38.83 146.11,-38.83 83.48,0 131.25,-26.87 131.25,-262.5 V 1546.56 c 0,-44.72 -6.03,-50.7 -140.15,-50.7 -65.647,0 -83.558,-6.02 -83.558,-35.74 0,-29.89 20.879,-32.85 50.698,-32.85 95.41,0 161.02,11.91 286.33,11.91 131.25,0 256.54,-29.84 381.82,-29.84 414.59,0 691.95,158.08 691.95,492.18 0,259.53 -175.98,360.98 -316.13,432.62 m -620.35,766.45 c 0,59.64 8.87,86.56 205.68,86.56 271.51,0 396.8,-286.45 396.8,-435.59 0,-235.66 -98.5,-292.3 -184.96,-357.93 0,0 -125.3,17.93 -307.19,17.93 -71.64,0 -110.33,-5.94 -110.33,41.8 z m 259.41,-1637.58 c -95.47,0 -190.82,20.94 -223.72,56.68 -26.82,29.92 -35.69,196.91 -35.69,223.71 v 533.89 c 0,65.68 23.86,77.66 107.34,77.66 325.08,0 545.82,-208.78 545.82,-477.25 0,-259.5 -167.05,-414.69 -393.75,-414.69 m 1301.08,-67.93 c 210.11,0 430.72,163.55 430.72,176.48 0,5.16 -7.81,20.63 -20.74,20.63 -15.55,0 -109.01,-62.19 -280.22,-62.19 -197.22,0 -474.75,95.98 -474.75,453.98 0,59.73 7.74,72.66 49.26,75.28 295.73,18.16 555.18,75.11 622.58,90.82 70.08,15.54 106.41,26.01 106.41,36.33 0,20.78 -41.45,82.96 -85.58,134.84 -93.46,108.98 -259.44,194.65 -394.34,194.65 -236.06,0 -482.56,-217.97 -482.56,-583.79 0,-433.28 316.5,-537.03 529.22,-537.03 m -72.6,1066.25 c 119.35,0 272.36,-191.96 272.36,-256.76 0,-15.55 -2.58,-20.78 -31.17,-25.86 -194.54,-31.17 -334.65,-64.96 -469.55,-64.96 -31.09,0 -31.09,2.62 -31.09,15.54 0,36.33 62.25,332.04 259.45,332.04 m 1214.1,-998.75 c 0,23.32 -2.63,31.17 -70.02,31.17 -191.95,0 -199.77,0 -199.77,127.07 v 534.49 c 0,108.83 57.08,171.17 207.51,171.17 129.74,0 160.91,-106.36 197.24,-106.36 15.55,0 57.06,114.14 57.06,140.08 0,67.42 -119.4,124.53 -166.04,124.53 -121.96,0 -243.93,-134.93 -282.77,-134.93 -10.42,0 -13,18.17 -13,41.49 0,7.77 5.2,64.88 5.2,77.85 0,20.81 -10.43,28.59 -20.74,28.59 -41.53,0 -90.86,-13 -132.38,-13 -51.84,0 -101.12,5.22 -189.36,5.22 -44.1,0 -41.52,-7.76 -41.52,-38.97 0,-28.56 0,-25.98 46.75,-25.98 145.28,0 140.08,-5.16 140.08,-181.48 v -710.98 c 0,-36.17 -7.79,-38.79 -114.14,-38.79 -62.34,0 -64.96,-5.23 -64.96,-31.17 0,-26.02 5.23,-26.02 64.96,-26.02 36.33,0 124.51,12.93 212.76,12.93 82.93,0 256.79,-12.93 293.12,-12.93 67.39,0 70.02,-2.61 70.02,26.02 m 1883.63,-67.5 c 210.14,0 430.67,163.55 430.67,176.48 0,5.16 -7.82,20.63 -20.79,20.63 -15.56,0 -109.01,-62.19 -280.17,-62.19 -197.21,0 -474.79,95.98 -474.79,453.98 0,59.73 7.74,72.66 49.34,75.28 295.74,18.16 555.1,75.11 622.6,90.82 70.02,15.54 106.38,26.01 106.38,36.33 0,20.78 -41.5,82.96 -85.65,134.84 -93.43,108.98 -259.4,194.65 -394.31,194.65 -236.17,0 -482.65,-217.97 -482.65,-583.79 0,-433.28 316.6,-537.03 529.37,-537.03 m -72.69,1066.25 c 119.35,0 272.48,-191.96 272.48,-256.76 0,-15.55 -2.62,-20.78 -31.17,-25.86 -194.65,-31.17 -334.67,-64.96 -469.55,-64.96 -31.18,0 -31.18,2.62 -31.18,15.54 0,36.33 62.27,332.04 259.42,332.04 M 7520.21,1395.08 c 210.14,0 430.64,163.55 430.64,176.48 0,5.16 -7.81,20.63 -20.82,20.63 -15.54,0 -108.82,-62.19 -280.13,-62.19 -197.15,0 -474.75,95.98 -474.75,453.98 0,59.73 7.81,72.66 49.26,75.28 295.8,18.16 555.19,75.11 622.65,90.82 70,15.54 106.32,26.01 106.32,36.33 0,20.78 -41.43,82.96 -85.53,134.84 -93.41,108.98 -259.48,194.65 -394.36,194.65 -236.07,0 -482.56,-217.97 -482.56,-583.79 0,-433.28 316.51,-537.03 529.28,-537.03 m -72.7,1066.25 c 119.34,0 272.46,-191.96 272.46,-256.76 0,-15.55 -2.57,-20.78 -31.17,-25.86 -194.61,-31.17 -334.64,-64.96 -469.55,-64.96 -31.18,0 -31.18,2.62 -31.18,15.54 0,36.33 62.28,332.04 259.44,332.04 M 6517.2,1496.37 c -62.34,0 -64.88,-15.63 -64.88,-33.79 0,-20.78 5.22,-26.02 64.88,-26.02 36.33,0 173.79,5.24 262.02,5.24 46.72,0 103.8,-5.24 142.7,-5.24 93.43,0 111.55,0 111.55,26.02 0,20.7 5.24,36.25 -124.53,36.25 -46.72,0 -64.82,28.63 -64.82,243.87 0,75.35 12.96,280.23 12.96,1268.67 0,77.81 13.01,171.17 13.01,202.42 0,28.55 -13.01,41.48 -25.97,41.48 -15.55,0 -114.19,-44.1 -316.49,-57.11 -44.1,-2.53 -64.88,0 -64.88,-31.09 0,-28.55 25.97,-33.71 72.62,-33.71 116.71,0 132.26,0 132.26,-163.48 V 1540.39 c 0,-46.64 -44.03,-44.02 -150.43,-44.02 m -1022.73,-13.09 c -88.15,0 -171.14,127.07 -259.44,233.52 -181.54,217.93 -228.26,267.18 -228.26,290.49 0,18.26 160.86,132.4 290.53,259.47 80.51,77.81 168.67,189.41 168.67,212.81 0,7.77 -10.43,10.38 -31.09,10.38 -31.17,0 -181.63,-7.76 -215.39,-7.76 -31.12,0 -80.45,7.76 -106.43,7.76 -33.59,0 -46.64,-5.22 -46.64,-25.93 0,-23.43 13.05,-28.63 51.95,-28.63 114.04,0 121.86,-5.16 121.86,-46.72 0,-54.33 -23.36,-98.44 -124.55,-194.49 -82.93,-77.81 -352.83,-316.48 -417.68,-316.48 -7.73,0 -10.35,7.77 -10.35,18.16 0,422.77 15.55,713.43 15.55,1107.73 0,83.05 5.19,192.04 5.19,225.75 0,15.61 -5.19,23.32 -18.12,23.32 -23.36,0 -176.49,-57.03 -363.26,-57.03 -28.48,0 -33.68,-10.47 -33.68,-36.41 0,-18.17 10.32,-25.86 116.72,-25.86 70.02,0 90.77,-23.41 90.77,-207.58 0,-547.42 -7.82,-1315.43 -7.82,-1390.62 0,-38.79 -23.28,-38.79 -111.54,-38.79 -62.2,0 -75.21,-13.09 -75.21,-33.79 0,-23.4 15.64,-26.02 75.21,-26.02 36.35,0 132.32,5.24 220.57,5.24 83,0 202.34,-5.24 241.26,-5.24 57.08,0 70.04,0 70.04,26.02 0,20.7 -10.35,33.79 -70.04,33.79 -160.83,0 -155.64,0 -155.64,121.83 v 163.48 c 0,23.36 36.29,41.52 77.81,67.46 44.14,28.56 80.45,54.41 90.79,54.41 15.56,0 124.62,-163.39 233.45,-287.96 109.02,-124.46 132.38,-189.34 179.1,-189.34 36.3,0 114.24,2.54 145.33,2.54 23.29,0 57.04,-2.54 88.17,-2.54 57.05,0 75.21,5.16 75.21,23.24 0,20.78 -20.74,33.79 -83.04,33.79"
     style="fill:#ffffff;fill-opacity:1;fill-rule:nonzero;stroke:none"
     transform="matrix(0.13333333,0,0,-0.13333333,0,533.33333)" /></g></svg>
