<?xml version="1.0" encoding="UTF-8" standalone="no"?>
<!-- Generator: Adobe Illustrator 27.6.1, SVG Export Plug-In . SVG Version: 6.00 Build 0)  -->

<svg
   version="1.1"
   id="Layer_1"
   x="0px"
   y="0px"
   viewBox="0 0 297.00012 534.84204"
   xml:space="preserve"
   sodipodi:docname="uc-ospo-logo-berkeley-dark.svg"
   inkscape:version="1.3 (0e150ed6c4, 2023-07-21)"
   width="297.00012"
   height="534.84204"
   xmlns:inkscape="http://www.inkscape.org/namespaces/inkscape"
   xmlns:sodipodi="http://sodipodi.sourceforge.net/DTD/sodipodi-0.dtd"
   xmlns="http://www.w3.org/2000/svg"
   xmlns:svg="http://www.w3.org/2000/svg"><defs
   id="defs115"><rect
     x="21.195894"
     y="258.27429"
     width="65.966904"
     height="129.54848"
     id="rect1" /></defs><sodipodi:namedview
   id="namedview115"
   pagecolor="#000000"
   bordercolor="#000000"
   borderopacity="0.25"
   inkscape:showpageshadow="2"
   inkscape:pageopacity="0.0"
   inkscape:pagecheckerboard="true"
   inkscape:deskcolor="#d1d1d1"
   inkscape:zoom="0.8586227"
   inkscape:cx="579.41631"
   inkscape:cy="294.65794"
   inkscape:window-width="1920"
   inkscape:window-height="1200"
   inkscape:window-x="0"
   inkscape:window-y="0"
   inkscape:window-maximized="0"
   inkscape:current-layer="Layer_1" />&#10;<style
   type="text/css"
   id="style1">&#10;	.st0{fill:#F7945E;}&#10;	.st1{fill:#619BD3;}&#10;	.st2{fill:#F15C45;}&#10;	.st3{fill:#FFCA26;}&#10;	.st4{fill:#214475;}&#10;	.st5{enable-background:new    ;}&#10;	.st6{fill:#224475;}&#10;</style>&#10;&#10;<text
   xml:space="preserve"
   id="text1"
   style="font-weight:bold;font-size:37.3333px;font-family:Lato;-inkscape-font-specification:'Lato Bold';white-space:pre;shape-inside:url(#rect1);display:inline;fill:#1f335e;fill-opacity:1"
   transform="translate(-63.6554,-115.68211)" /><g
   id="g3"
   style="fill:#ced6dd;fill-opacity:1"
   transform="translate(-63.311847,-43.682113)"><text
     xml:space="preserve"
     style="font-weight:bold;font-size:66.6667px;font-family:Lato;-inkscape-font-specification:'Lato Bold';text-align:center;text-anchor:middle;fill:#ced6dd;fill-opacity:1"
     x="205.48047"
     y="482.65134"
     id="text2"><tspan
       sodipodi:role="line"
       id="tspan2"
       x="205.48047"
       y="482.65134"
       style="font-style:normal;font-variant:normal;font-weight:bold;font-stretch:normal;font-size:66.6667px;font-family:'Open Sans';-inkscape-font-specification:'Open Sans Bold';text-align:center;text-anchor:middle;fill:#ced6dd;fill-opacity:1" /><tspan
       sodipodi:role="line"
       x="205.48047"
       y="568.91479"
       style="font-style:normal;font-variant:normal;font-weight:600;font-stretch:normal;font-size:40px;font-family:'Open Sans';-inkscape-font-specification:'Open Sans, Semi-Bold';font-variant-ligatures:normal;font-variant-caps:small-caps;font-variant-numeric:normal;font-variant-east-asian:normal;text-align:center;text-anchor:middle;fill:#ced6dd;fill-opacity:1"
       id="tspan3">Program Office</tspan></text><text
     xml:space="preserve"
     style="font-weight:bold;font-size:40px;font-family:'Open Sans';-inkscape-font-specification:'Open Sans Bold';text-align:center;text-anchor:middle;fill:#ced6dd;fill-opacity:1"
     x="206.11523"
     y="519.6394"
     id="text3"><tspan
       sodipodi:role="line"
       id="tspan1"
       x="206.11523"
       y="519.6394"
       style="font-style:normal;font-variant:normal;font-weight:600;font-stretch:normal;font-size:40px;font-family:'Open Sans';-inkscape-font-specification:'Open Sans, Semi-Bold';font-variant-ligatures:normal;font-variant-caps:small-caps;font-variant-numeric:normal;font-variant-east-asian:normal;fill:#ced6dd;fill-opacity:1">Open Source</tspan></text></g><g
   id="g2"
   transform="matrix(1.8822744,0,0,1.8822744,-7.8833529e-8,163.05583)"><path
     class="st0"
     d="m 11.323142,61.043999 c -8.4600001,4.57 -17.1000001,21.38 -6.2200001,32.57 C 15.983142,104.804 40.033142,107.114 52.053142,101.074 c 13.65,-6.850001 24.93,-36.380001 25.06,-47.260001 0.13,-10.88 0.51,-21.04 4.86,-21.35 4.35,-0.31 12.14,1.32 17.43,-4.28 5.289998,-5.6 2.759998,-18.32 -7.86,-25.37 -9.45,-6.28 -20.11,-3.03999997 -20.52,19.9 -0.27,15.08 -4.42,27.05 -11.07,36.38 -6.65,9.33 -14.12,8.4 -19.71,7.46 -5.6,-0.92 -19.28,-10.72 -28.92,-5.51 z"
     id="path1-6"
     style="fill:#c4820e;fill-opacity:1" /><path
     class="st1"
     d="m 63.723142,70.913999 c 3.65,-10.42 11.01,-21.3 24.69,-23.17 13.679998,-1.87 25.729998,-3.71 39.109998,0.33 13.37,4.04 25.13,13.51 24.51,33.72 -0.62,20.210001 -14.05,50.740001 -44.14,50.690001 -22.459998,-0.04 -39.379998,-15.84 -43.109998,-31.39 -3.73,-15.550001 -3.24,-23.960001 -1.06,-30.180001 z"
     id="path2-7"
     style="fill:#3b7ea1;fill-opacity:1" /><path
     class="st2"
     d="m 62.473142,119.424 c 2.81,10 15.55,7.15 19.9,-7.77 4.35,-14.930001 -1.55,-20.210001 5.91,-26.430001 7.46,-6.22 14.609998,-1.87 22.079998,-13.68 7.46,-11.82 6.22,-31.41 -7.77,-32.65 -13.989998,-1.24 -18.349998,0.93 -19.899998,3.11 -1.55,2.18 -3.99,9.79 -5.57,19.04 -1.58,9.25 -4.07,26.67 -6.25,31.95 -2.18,5.29 -11.2,16.480001 -8.4,26.430001 z"
     id="path3-5"
     style="fill:#ed4e33;fill-opacity:1" /><path
     class="st3"
     d="m 61.333142,48.583999 c -5.07,11.3 -15.82,14.38 -23.27,11.03 -7.45,-3.35 -8.67,-14.93 -4.3,-26.52 5.06,-13.43 16.06,-15.54 23.51,-12.2 7.45,3.35 9.13,16.39 4.06,27.69 z"
     id="path4-3"
     style="fill:#fdb515;fill-opacity:1" /></g><g
   id="g1"
   style="fill:#ced6dd;fill-opacity:1"
   transform="matrix(0.36065637,0,0,0.36065637,279.34487,-102.42641)"><path
     fill-rule="nonzero"
     fill="rgb(12.261963%, 20.007324%, 36.999512%)"
     fill-opacity="1"
     d="m -134.61719,532.3125 h 6.01953 v -34.67969 h -6.01953 v 34.67969"
     id="path1"
     style="fill:#ced6dd;fill-opacity:1" /><path
     fill-rule="nonzero"
     fill="rgb(12.261963%, 20.007324%, 36.999512%)"
     fill-opacity="1"
     d="m -148.23438,520.41796 h -0.14844 l -14.125,-22.83593 -5.82812,0.60156 v 34.12891 h 6.02734 v -23.28907 h 0.10547 l 14.63281,23.28907 h 5.36719 v -34.67969 h -6.03125 v 22.78515"
     id="path2"
     style="fill:#ced6dd;fill-opacity:1" /><path
     fill-rule="nonzero"
     fill="rgb(12.261963%, 20.007324%, 36.999512%)"
     fill-opacity="1"
     d="m -257.37891,532.3125 h 6.02734 v -14.94141 h 12.75782 v -5.10547 h -12.75782 v -9.57812 h 14.23438 v -5.10547 h -20.26172 v 34.73047"
     id="path3"
     style="fill:#ced6dd;fill-opacity:1" /><path
     fill-rule="nonzero"
     fill="rgb(12.261963%, 20.007324%, 36.999512%)"
     fill-opacity="1"
     d="m -271.25,532.3125 h 6.02734 V 497.63281 H -271.25 v 34.67969"
     id="path4"
     style="fill:#ced6dd;fill-opacity:1" /><path
     fill-rule="nonzero"
     fill="rgb(12.261963%, 20.007324%, 36.999512%)"
     fill-opacity="1"
     d="m -292.05078,497.63281 h -6.02735 v 34.67969 h 20.51563 l 0.45312,-5.11719 h -14.9414 v -29.5625"
     id="path5-3"
     style="fill:#ced6dd;fill-opacity:1" /><path
     fill-rule="nonzero"
     fill="rgb(12.261963%, 20.007324%, 36.999512%)"
     fill-opacity="1"
     d="m -349.85547,527.75 c -6.42578,0 -9.47266,-4.60938 -9.47266,-12.80469 0,-8.14453 3.2461,-12.75781 9.3711,-12.75781 3.28906,0 5.73046,1.16796 8.40625,3.39453 l 3.13281,-4.05078 c -3.63672,-2.99219 -7.23438,-4.46094 -11.53906,-4.46094 -10.42579,0 -15.54688,7.49219 -15.54688,17.92578 0,10.62891 4.66016,17.875 15.34375,17.875 4.65625,0 9.00781,-1.91797 12.55859,-5.16797 l -3.08984,-3.94922 c -2.83984,2.58594 -6.07812,3.9961 -9.16406,3.9961"
     id="path6-5"
     style="fill:#ced6dd;fill-opacity:1" /><path
     fill-rule="nonzero"
     fill="rgb(12.261963%, 20.007324%, 36.999512%)"
     fill-opacity="1"
     d="m -408.42578,532.3125 h 6.01953 v -14.94141 h 12.76172 v -5.10547 h -12.76172 v -9.57812 h 14.23437 v -5.10547 h -20.2539 v 34.73047"
     id="path7-6"
     style="fill:#ced6dd;fill-opacity:1" /><path
     fill-rule="nonzero"
     fill="rgb(12.261963%, 20.007324%, 36.999512%)"
     fill-opacity="1"
     d="m -478.4375,507.5039 c 0,0 -0.60938,1.26563 -2.32813,5.10938 h -0.14844 c -1.82421,-3.84375 -2.48828,-5.10938 -2.48828,-5.10938 l -4.60156,-9.87109 h -6.78906 l 10.9414,19.83984 v 14.83985 h 6.02735 v -14.83985 l 10.93359,-19.83984 h -6.64062 l -4.90625,9.87109"
     id="path8-2"
     style="fill:#ced6dd;fill-opacity:1" /><path
     fill-rule="nonzero"
     fill="rgb(12.261963%, 20.007324%, 36.999512%)"
     fill-opacity="1"
     d="m -523.14063,502.78906 h 9.16797 v 29.52344 h 6.02734 v -29.56641 h 8.75782 l 0.45312,-5.11328 h -24.40625 v 5.15625"
     id="path9"
     style="fill:#ced6dd;fill-opacity:1" /><path
     fill-rule="nonzero"
     fill="rgb(12.261963%, 20.007324%, 36.999512%)"
     fill-opacity="1"
     d="m -536.09766,532.3125 h 6.02734 v -34.67969 h -6.02734 v 34.67969"
     id="path10"
     style="fill:#ced6dd;fill-opacity:1" /><path
     fill-rule="nonzero"
     fill="rgb(12.261963%, 20.007324%, 36.999512%)"
     fill-opacity="1"
     d="m -558.6211,506.64062 c 0,-2.57812 1.72266,-4.45312 5.06641,-4.45312 2.98437,0 5.3125,1.00781 7.89453,2.32421 l 2.17969,-4.35156 c -2.9375,-1.82422 -6.42578,-3.08984 -10.07422,-3.08984 -6.12891,0 -11.23828,3.69922 -11.23828,9.82422 0,11.64843 15.33984,9.57031 15.33984,16.05859 0,2.57031 -1.98047,4.79688 -5.97656,4.79688 -2.68359,0 -6.07813,-1.26563 -8.90234,-3.1836 l -2.53907,4.45313 c 2.83203,1.97656 6.67969,3.85156 11.44141,3.85156 6.63281,0 12.14844,-4.25781 12.14844,-10.12891 0,-11.80468 -15.33985,-8.2539 -15.33985,-16.10156"
     id="path11"
     style="fill:#ced6dd;fill-opacity:1" /><path
     fill-rule="nonzero"
     fill="rgb(12.261963%, 20.007324%, 36.999512%)"
     fill-opacity="1"
     d="m -619.31641,517.37109 h 13.01172 v -5.11328 h -13.01172 v -9.57031 h 14.63281 v -5.10547 h -20.65234 v 34.73047 h 21.05469 l 0.46093,-5.11719 h -15.49609 v -9.82422"
     id="path12"
     style="fill:#ced6dd;fill-opacity:1" /><path
     fill-rule="nonzero"
     fill="rgb(12.261963%, 20.007324%, 36.999512%)"
     fill-opacity="1"
     d="m -643.76563,517.02343 c 0,0 -0.65625,1.97657 -2.375,7.89844 h -0.30469 c -1.67578,-5.92187 -2.32812,-7.95703 -2.32812,-7.95703 l -6.63672,-19.33203 h -6.375 l 11.94922,34.67969 h 6.62891 l 12,-34.67969 h -5.92188 l -6.63672,19.39062"
     id="path13"
     style="fill:#ced6dd;fill-opacity:1" /><path
     fill-rule="nonzero"
     fill="rgb(12.261963%, 20.007324%, 36.999512%)"
     fill-opacity="1"
     d="m -673.73438,532.3125 h 6.02735 v -34.67969 h -6.02735 v 34.67969"
     id="path14"
     style="fill:#ced6dd;fill-opacity:1" /><path
     fill-rule="nonzero"
     fill="rgb(12.261963%, 20.007324%, 36.999512%)"
     fill-opacity="1"
     d="m -688.35938,520.41796 h -0.14453 l -14.13672,-22.83593 -5.8164,0.60156 v 34.12891 h 6.02343 v -23.28907 h 0.0977 l 14.63672,23.28907 h 5.35937 v -34.67969 h -6.01953 v 22.78515"
     id="path15"
     style="fill:#ced6dd;fill-opacity:1" /><path
     fill-rule="nonzero"
     fill="rgb(12.261963%, 20.007324%, 36.999512%)"
     fill-opacity="1"
     d="m -722.94141,520.61328 c 0,4.30859 -1.8125,7.13672 -6.72266,7.13672 -4.96093,0 -6.78515,-2.82813 -6.78515,-7.1875 v -22.92969 h -6.01953 v 22.63281 c 0,7.78906 4.29297,12.60547 12.80468,12.60547 8.44922,0 12.75782,-4.81641 12.75782,-12.65625 v -22.58203 h -6.03516 v 22.98047"
     id="path16"
     style="fill:#ced6dd;fill-opacity:1" /><path
     fill-rule="nonzero"
     fill="rgb(12.261963%, 20.007324%, 36.999512%)"
     fill-opacity="1"
     d="m -113.71485,519.65234 2.6836,-7.64844 c 0,0 0.41015,-1.10547 2.73047,-8.29687 h 0.10546 c 2.38282,7.1914 2.78125,8.29687 2.78125,8.29687 l 2.6875,7.64844 z m 9.26563,-22.07031 -7.03516,0.55859 -12.20312,34.17188 h 5.62109 l 2.88281,-8.35547 h 13.97266 l 2.88672,8.35547 h 6.17578 l -12.30078,-34.73047"
     id="path17"
     style="fill:#ced6dd;fill-opacity:1" /><path
     fill-rule="nonzero"
     fill="rgb(12.261963%, 20.007324%, 36.999512%)"
     fill-opacity="1"
     d="m -186.75782,513.375 h -5.05859 v -10.58594 h 4.95313 c 4.10937,0 5.42578,1.93359 5.42578,5.16797 0,3.28906 -1.67578,5.41797 -5.32032,5.41797 z m 7.08985,6.43359 c -0.40625,-0.80859 -1.01172,-1.72266 -2.12891,-2.38672 v -0.0937 c 4.55469,-1.72656 6.53516,-5.26562 6.53516,-9.42187 0,-6.02344 -3.80469,-10.27344 -11.44141,-10.27344 h -11.14062 v 34.67969 h 6.02734 v -13.87896 h 2.88281 c 2.17578,0 3.44141,2.03516 4.45313,4.09766 l 4.8125,9.78125 h 6.6289 l -6.6289,-12.50391"
     id="path18"
     style="fill:#ced6dd;fill-opacity:1" /><path
     fill-rule="nonzero"
     fill="rgb(12.261963%, 20.007324%, 36.999512%)"
     fill-opacity="1"
     d="m -218.14063,527.75 c -5.97656,0 -8.91406,-5.26172 -8.91406,-12.85547 0,-7.54688 2.9375,-12.70703 8.91406,-12.70703 5.97656,0 8.86328,5.21484 8.86328,12.75781 0,7.54297 -2.9414,12.80469 -8.86328,12.80469 z m 0,-30.67969 c -10.42969,0 -15.08594,7.4414 -15.08594,17.875 0,9.92578 4.60157,17.92578 15.08594,17.92578 10.47656,0 15.08985,-8 15.08985,-17.92578 0,-10.4336 -4.66407,-17.875 -15.08985,-17.875"
     id="path19"
     style="fill:#ced6dd;fill-opacity:1" /><path
     fill-rule="nonzero"
     fill="rgb(12.261963%, 20.007324%, 36.999512%)"
     fill-opacity="1"
     d="m -324.54688,519.65234 2.6836,-7.64844 c 0,0 0.39843,-1.10547 2.72656,-8.29687 h 0.10547 c 2.38281,7.1914 2.78515,8.29687 2.78515,8.29687 l 2.6836,7.64844 z m 9.26563,-22.07031 -7.03516,0.55859 -12.21484,34.17188 h 5.63281 l 2.88281,-8.35547 h 13.98047 l 2.87891,8.35547 h 6.17578 l -12.30078,-34.73047"
     id="path20"
     style="fill:#ced6dd;fill-opacity:1" /><path
     fill-rule="nonzero"
     fill="rgb(12.261963%, 20.007324%, 36.999512%)"
     fill-opacity="1"
     d="m -431.25782,527.75 c -5.97656,0 -8.90625,-5.26172 -8.90625,-12.85547 0,-7.54688 2.92969,-12.70703 8.90625,-12.70703 5.98438,0 8.85938,5.21484 8.85938,12.75781 0,7.54297 -2.92969,12.80469 -8.85938,12.80469 z m 0,-30.67969 c -10.42187,0 -15.08984,7.4414 -15.08984,17.875 0,9.92578 4.61328,17.92578 15.08984,17.92578 10.48438,0 15.09375,-8 15.09375,-17.92578 0,-10.4336 -4.66406,-17.875 -15.09375,-17.875"
     id="path21"
     style="fill:#ced6dd;fill-opacity:1" /><path
     fill-rule="nonzero"
     fill="rgb(12.261963%, 20.007324%, 36.999512%)"
     fill-opacity="1"
     d="m -584.74219,513.375 h -5.0625 v -10.58594 h 4.96484 c 4.10157,0 5.41407,1.93359 5.41407,5.16797 0,3.28906 -1.67188,5.41797 -5.31641,5.41797 z m 7.08984,6.43359 c -0.40234,-0.80859 -1.01172,-1.72266 -2.12109,-2.38672 v -0.0937 c 4.55078,-1.72656 6.52344,-5.26562 6.52344,-9.42187 0,-6.02344 -3.79297,-10.27344 -11.44141,-10.27344 h -11.14062 v 34.67969 h 6.02734 v -13.87896 h 2.89062 c 2.17188,0 3.44141,2.03516 4.45704,4.09766 l 4.80468,9.78125 h 6.63282 l -6.63282,-12.50391"
     id="path22"
     style="fill:#ced6dd;fill-opacity:1" /><path
     fill-rule="nonzero"
     fill="rgb(12.261963%, 20.007324%, 36.999512%)"
     fill-opacity="1"
     d="m 43.5039,360.35937 c -3.63281,0 -10.64062,1.03906 -14.53125,1.03906 -7.00781,0 -11.67187,-0.52343 -18.67968,-0.52343 -4.66797,0 -5.44141,0 -5.44141,3.3789 0,2.59375 1.03516,2.59375 9.07812,2.59375 8.81641,0 8.81641,1.55469 8.81641,9.33594 0,3.63281 -9.33594,30.61719 -15.56641,49.28906 -4.14843,12.19922 -5.70312,15.82813 -7.51953,15.82813 -1.04297,0 -4.15234,-4.41016 -6.22656,-9.85547 -15.57422,-39.95313 -22.30859,-49.03516 -22.30859,-56.55469 0,-5.96484 1.55078,-7.51953 7.77734,-7.51953 5.44531,0 6.48828,-0.26172 6.48828,-2.59766 0,-2.85937 -1.04297,-3.89843 -6.48828,-3.89843 -8.30469,0 -17.38281,0.77734 -24.64453,0.77734 -6.22656,0 -8.05078,-0.51563 -15.30469,-0.51563 -4.67187,0 -5.45312,1.30079 -5.45312,3.63672 0,2.33594 0.26172,2.59766 5.45312,2.59766 4.66406,0 6.48047,1.29297 12.96875,16.85547 14.26953,33.72656 35.02344,81.72656 35.02344,84.58203 0,7.78125 -22.30859,38.39062 -31.65234,50.07031 -8.82422,11.16016 -21.01172,12.71485 -21.01172,14.26953 0,1.30078 2.59765,2.59375 7,2.59375 5.70703,0 7.52343,-2.07812 15.30468,-3.10937 5.71485,-0.78516 8.83204,-1.03906 11.6836,-6.75 8.29687,-17.12891 19.97656,-38.14063 36.32422,-77.83203 20.48828,-49.81641 31.90234,-80.94141 37.61328,-80.94141 3.11328,0 6.74609,-1.30078 6.74609,-3.63281 0,-2.86328 -1.30078,-3.11719 -5.44922,-3.11719 m -697.67187,16.09766 c -5.96875,-2.96875 -11.63672,-4.46485 -11.63672,-5.05469 0,-0.89453 6.5625,-4.1875 12.23437,-8.05859 9.54297,-6.5625 22.3711,-17 22.3711,-38.1836 0,-21.17969 -16.70313,-41.16015 -55.48047,-41.16015 -26.84375,0 -41.16016,1.79687 -47.42578,1.79687 -10.4375,0 -19.6875,-0.30078 -28.9375,-0.30078 -5.0625,0 -5.95703,0.30078 -5.95703,2.38281 0,3.58203 1.1914,3.88281 14.61328,3.88281 8.34766,0 13.125,2.6875 13.125,26.25001 v 137.20312 c 0,4.47266 -0.60547,5.07031 -14.01563,5.07031 -6.5664,0 -8.35547,0.60156 -8.35547,3.57422 0,2.98828 2.08594,3.28516 5.07032,3.28516 9.53906,0 16.10156,-1.19141 28.63281,-1.19141 13.125,0 25.65234,2.98438 38.17969,2.98438 41.46093,0 69.19531,-15.8086 69.19531,-49.21875 0,-25.95313 -17.59766,-36.09766 -31.61328,-43.26172 m -62.03516,-76.64453 c 0,-5.96485 0.89063,-8.65625 20.57031,-8.65625 27.14844,0 39.67969,28.64453 39.67969,43.55859 0,23.56641 -9.85156,29.23047 -18.49609,35.79297 0,0 -12.53125,-1.79297 -30.71875,-1.79297 -7.16406,0 -11.03516,0.59375 -11.03516,-4.17969 z m 25.94141,163.75781 c -9.54688,0 -19.08203,-2.09375 -22.3711,-5.66797 -2.67968,-2.99219 -3.57031,-19.69141 -3.57031,-22.37109 v -53.39063 c 0,-6.56641 2.38672,-7.76562 10.73438,-7.76562 32.50781,0 54.58203,20.8789 54.58203,47.72656 0,25.94922 -16.70313,41.46875 -39.375,41.46875 m 130.10937,6.79297 c 21.01172,0 43.07032,-16.35547 43.07032,-17.64844 0,-0.51563 -0.78125,-2.0625 -2.07422,-2.0625 -1.55469,0 -10.89844,6.21875 -28.01953,6.21875 -19.72266,0 -47.47657,-9.59766 -47.47657,-45.39844 0,-5.97265 0.77344,-7.26562 4.92578,-7.52734 29.57422,-1.81641 55.51954,-7.51172 62.25782,-9.08203 7.00781,-1.55469 10.64062,-2.60157 10.64062,-3.63282 0,-2.07812 -4.14453,-8.29687 -8.55469,-13.48437 -9.34765,-10.89844 -25.94531,-19.46484 -39.43359,-19.46484 -23.60937,0 -48.25781,21.79687 -48.25781,58.3789 0,43.32813 31.64844,53.70313 52.92187,53.70313 m -7.26172,-106.625 c 11.9375,0 27.23829,19.19531 27.23829,25.67578 0,1.55469 -0.25782,2.07812 -3.11719,2.58594 -19.45313,3.11718 -33.46485,6.49609 -46.95703,6.49609 -3.10938,0 -3.10938,-0.26172 -3.10938,-1.55469 0,-3.63281 6.22656,-33.20312 25.94531,-33.20312 m 121.41016,99.875 c 0,-2.33203 -0.26172,-3.11719 -7,-3.11719 -19.19531,0 -19.97656,0 -19.97656,-12.70703 v -53.44922 c 0,-10.88281 5.70703,-17.11719 20.75,-17.11719 12.97265,0 16.08984,10.63672 19.72265,10.63672 1.55469,0 5.70704,-11.41406 5.70704,-14.00781 0,-6.74219 -11.94141,-12.45313 -16.60547,-12.45313 -12.19532,0 -24.39063,13.49219 -28.27344,13.49219 -1.04297,0 -1.30078,-1.81641 -1.30078,-4.14844 0,-0.77734 0.51953,-6.48828 0.51953,-7.78515 0,-2.08203 -1.04297,-2.85938 -2.07422,-2.85938 -4.15234,0 -9.08594,1.30078 -13.23828,1.30078 -5.18359,0 -10.11328,-0.52343 -18.9375,-0.52343 -4.41016,0 -4.15234,0.77734 -4.15234,3.89843 0,2.85547 0,2.59766 4.67578,2.59766 14.52734,0 14.00781,0.51562 14.00781,18.14844 v 71.09765 c 0,3.61719 -0.77734,3.87891 -11.41406,3.87891 -6.23438,0 -6.4961,0.52344 -6.4961,3.11719 0,2.60156 0.52344,2.60156 6.4961,2.60156 3.63281,0 12.45312,-1.29297 21.27734,-1.29297 8.29297,0 25.67969,1.29297 29.3125,1.29297 6.73828,0 7,0.26172 7,-2.60156 m 188.36328,6.75 c 21.01563,0 43.06641,-16.35547 43.06641,-17.64844 0,-0.51563 -0.78125,-2.0625 -2.07813,-2.0625 -1.55468,0 -10.89843,6.21875 -28.01562,6.21875 -19.72266,0 -47.48047,-9.59766 -47.48047,-45.39844 0,-5.97265 0.77344,-7.26562 4.93359,-7.52734 29.57422,-1.81641 55.51172,-7.51172 62.26172,-9.08203 7,-1.55469 10.63672,-2.60157 10.63672,-3.63282 0,-2.07812 -4.14844,-8.29687 -8.5625,-13.48437 -9.34375,-10.89844 -25.94141,-19.46484 -39.43359,-19.46484 -23.61719,0 -48.26563,21.79687 -48.26563,58.3789 0,43.32813 31.66016,53.70313 52.9375,53.70313 m -7.26953,-106.625 c 11.9375,0 27.25,19.19531 27.25,25.67578 0,1.55469 -0.26172,2.07812 -3.11719,2.58594 -19.46484,3.11718 -33.46875,6.49609 -46.95703,6.49609 -3.11719,0 -3.11719,-0.26172 -3.11719,-1.55469 0,-3.63281 6.22657,-33.20312 25.94141,-33.20312 m 156.90625,106.625 c 21.01563,0 43.06641,-16.35547 43.06641,-17.64844 0,-0.51563 -0.78125,-2.0625 -2.08203,-2.0625 -1.55469,0 -10.88282,6.21875 -28.01563,6.21875 -19.71484,0 -47.47266,-9.59766 -47.47266,-45.39844 0,-5.97265 0.78125,-7.26562 4.92579,-7.52734 29.57812,-1.81641 55.51953,-7.51172 62.26562,-9.08203 7,-1.55469 10.63281,-2.60157 10.63281,-3.63282 0,-2.07812 -4.14453,-8.29687 -8.55468,-13.48437 -9.33985,-10.89844 -25.94922,-19.46484 -39.4375,-19.46484 -23.60547,0 -48.25391,21.79687 -48.25391,58.3789 0,43.32813 31.64844,53.70313 52.92578,53.70313 m -7.26953,-106.625 c 11.93359,0 27.24609,19.19531 27.24609,25.67578 0,1.55469 -0.25781,2.07812 -3.11718,2.58594 -19.46094,3.11718 -33.46485,6.49609 -46.95313,6.49609 -3.11719,0 -3.11719,-0.26172 -3.11719,-1.55469 0,-3.63281 6.22657,-33.20312 25.94141,-33.20312 m -93.03125,96.49609 c -6.23438,0 -6.48828,1.5625 -6.48828,3.37891 0,2.07812 0.52344,2.60156 6.48828,2.60156 3.63281,0 17.37891,-0.52344 26.20312,-0.52344 4.67188,0 10.37891,0.52344 14.26954,0.52344 9.34375,0 11.15625,0 11.15625,-2.60156 0,-2.07032 0.52343,-3.625 -12.45313,-3.625 -4.67187,0 -6.48437,-2.86328 -6.48437,-24.38672 0,-7.53516 1.29687,-28.02344 1.29687,-126.86719 0,-7.78125 1.30078,-17.11719 1.30078,-20.24219 0,-2.85547 -1.30078,-4.14843 -2.59765,-4.14843 -1.55469,0 -11.41797,4.41015 -31.64844,5.71093 -4.41016,0.25391 -6.48828,0 -6.48828,3.10938 0,2.85547 2.59765,3.37109 7.26172,3.37109 11.67187,0 13.22656,0 13.22656,16.34766 v 142.94922 c 0,4.66406 -4.40235,4.40234 -15.04297,4.40234 m -102.27344,1.30859 c -8.8125,0 -17.11328,-12.70703 -25.9414,-23.35156 -18.15625,-21.79297 -22.82813,-26.71875 -22.82813,-29.05078 0,-1.82422 16.08594,-13.23828 29.05469,-25.94531 8.05078,-7.78125 16.86719,-18.94141 16.86719,-21.28125 0,-0.77735 -1.04297,-1.03906 -3.10938,-1.03906 -3.11719,0 -18.16406,0.77734 -21.53906,0.77734 -3.11328,0 -8.04688,-0.77734 -10.64453,-0.77734 -3.35938,0 -4.66407,0.52343 -4.66407,2.59375 0,2.34375 1.30469,2.86328 5.19532,2.86328 11.40625,0 12.1875,0.51562 12.1875,4.67187 0,5.4336 -2.33594,9.84375 -12.45703,19.44922 -8.29297,7.78125 -35.28125,31.64844 -41.76563,31.64844 -0.77344,0 -1.03516,-0.77735 -1.03516,-1.81641 0,-42.27734 1.55469,-71.34375 1.55469,-110.77344 0,-8.30468 0.51953,-19.20312 0.51953,-22.57421 0,-1.5625 -0.51953,-2.33204 -1.8125,-2.33204 -2.33593,0 -17.64843,5.70313 -36.32812,5.70313 -2.84766,0 -3.36719,1.04687 -3.36719,3.64062 0,1.81641 1.03125,2.58594 11.67188,2.58594 7.0039,0 9.07812,2.33985 9.07812,20.75782 0,54.74218 -0.78125,131.54296 -0.78125,139.06249 0,3.87891 -2.32812,3.87891 -11.15625,3.87891 -6.21875,0 -7.51953,1.30859 -7.51953,3.37891 0,2.33984 1.5625,2.60156 7.51953,2.60156 3.63672,0 13.23438,-0.52344 22.05859,-0.52344 8.30079,0 20.23438,0.52344 24.125,0.52344 5.70704,0 7.00391,0 7.00391,-2.60156 0,-2.07032 -1.03516,-3.37891 -7.00391,-3.37891 -16.08203,0 -15.5625,0 -15.5625,-12.18359 v -16.34766 c 0,-2.33594 3.62891,-4.15234 7.78125,-6.74609 4.41407,-2.85547 8.04297,-5.44141 9.07813,-5.44141 1.55469,0 12.46094,16.33984 23.34375,28.79688 10.90234,12.44531 13.23828,18.93359 17.91016,18.93359 3.63281,0 11.42578,-0.25391 14.53515,-0.25391 2.32813,0 5.70313,0.25391 8.81641,0.25391 5.70312,0 7.51953,-0.51563 7.51953,-2.32422 0,-2.07812 -2.07422,-3.37891 -8.30469,-3.37891"
     id="path23"
     style="fill:#ced6dd;fill-opacity:1" /></g></svg>
